# xmcd
#
# Track frame offsets:
#       187
#       25307
#       51032
#       67587
#       92522
#       111375
#       132547
#       154480
#       179175
#       209560
#       227992
#
# Disc length: 3090 seconds
#
# Revision: 0
# Processed by: cddbd v1.5.1PL0 Copyright (c) Steve Scherf et al.
# Submitted via: CD-DA_X-Tractor v0.24
#
DISCID=a20c100b
DTITLE=米村裕美 - ハウ・アー・ユー？
DYEAR=1992
DGENRE=J-Pop
TTITLE0=見えなくなったシャツへ
TTITLE1=風の約束
TTITLE2=つづきをみていってね
TTITLE3=初雪
TTITLE4=台風とひまわり
TTITLE5=いたいほどわかるんです
TTITLE6=一枚の写真
TTITLE7=Treasure
TTITLE8=卒業
TTITLE9=ただいま
TTITLE10=初雪 -reprise
EXTD=
EXTT0=
EXTT1=
EXTT2=
EXTT3=
EXTT4=
EXTT5=
EXTT6=
EXTT7=
EXTT8=
EXTT9=
EXTT10=
PLAYORDER=
